<?xml version="1.0" encoding="UTF-8" standalone="no"?><!-- Generator: Gravit.io --><svg xmlns="http://www.w3.org/2000/svg" xmlns:xlink="http://www.w3.org/1999/xlink" style="isolation:isolate" viewBox="163.25 342 56 58.542" width="56pt" height="58.542pt"><path d=" M 179.076 342 C 170.35 342 163.25 350.469 163.25 360.878 C 163.25 382.316 183.574 392.895 190.489 399.769 L 191.25 400.542 L 192.011 399.769 C 198.926 392.895 219.25 382.314 219.25 360.878 C 219.25 350.469 212.15 342 203.424 342 C 198.487 342 194.151 344.797 191.25 349.034 C 188.349 344.797 184.013 342 179.076 342 Z  M 179.076 344.904 C 183.746 344.904 187.827 347.764 190.223 352.075 L 191.25 353.89 L 192.277 352.075 C 194.673 347.761 198.754 344.904 203.424 344.904 C 210.833 344.904 216.815 352.04 216.815 360.878 C 216.815 379.609 199.277 389.303 191.25 396.865 C 183.223 389.303 165.685 379.609 165.685 360.878 C 165.685 352.04 171.667 344.904 179.076 344.904 Z " fill="rgb(0,0,0)"/></svg>