<?xml version="1.0" encoding="UTF-8" standalone="no"?><!-- Generator: Gravit.io --><svg xmlns="http://www.w3.org/2000/svg" xmlns:xlink="http://www.w3.org/1999/xlink" style="isolation:isolate" viewBox="270.25 255 42 58.01" width="42pt" height="58.01pt"><path d=" M 274.25 255 C 272.043 255 270.25 256.857 270.25 259.144 L 270.25 308.866 C 270.25 311.153 272.043 313.01 274.25 313.01 L 309.25 313.01 C 310.902 313.01 312.25 311.614 312.25 309.902 L 312.25 258.108 C 312.25 256.396 310.902 255 309.25 255 L 274.25 255 Z  M 274.25 257.072 L 309.25 257.072 C 309.8 257.072 310.25 257.538 310.25 258.108 L 310.25 297.472 C 310.25 298.041 309.8 298.507 309.25 298.507 L 282.25 298.507 L 282.25 268.467 C 282.25 267.894 281.802 267.431 281.25 267.431 C 280.698 267.431 280.25 267.894 280.25 268.467 L 280.25 298.507 L 274.25 298.507 C 273.633 298.507 272.91 298.738 272.25 299.163 L 272.25 259.144 C 272.25 258.002 273.148 257.072 274.25 257.072 Z  M 275.25 258.108 C 274.698 258.108 274.25 258.571 274.25 259.144 C 274.25 259.716 274.698 260.179 275.25 260.179 L 277.25 260.179 C 277.802 260.179 278.25 259.716 278.25 259.144 C 278.25 258.571 277.802 258.108 277.25 258.108 L 275.25 258.108 Z  M 281.25 259.144 C 280.698 259.144 280.25 259.607 280.25 260.179 L 280.25 264.323 C 280.25 264.895 280.698 265.359 281.25 265.359 C 281.802 265.359 282.25 264.895 282.25 264.323 L 282.25 260.179 C 282.25 259.607 281.802 259.144 281.25 259.144 Z  M 275.25 263.287 C 274.698 263.287 274.25 263.751 274.25 264.323 C 274.25 264.895 274.698 265.359 275.25 265.359 L 277.25 265.359 C 277.802 265.359 278.25 264.895 278.25 264.323 C 278.25 263.751 277.802 263.287 277.25 263.287 L 275.25 263.287 Z  M 275.25 268.467 C 274.698 268.467 274.25 268.93 274.25 269.502 C 274.25 270.075 274.698 270.538 275.25 270.538 L 277.25 270.538 C 277.802 270.538 278.25 270.075 278.25 269.502 C 278.25 268.93 277.802 268.467 277.25 268.467 L 275.25 268.467 Z  M 275.25 273.646 C 274.698 273.646 274.25 274.11 274.25 274.682 C 274.25 275.254 274.698 275.718 275.25 275.718 L 277.25 275.718 C 277.802 275.718 278.25 275.254 278.25 274.682 C 278.25 274.11 277.802 273.646 277.25 273.646 L 275.25 273.646 Z  M 288.25 273.646 C 287.698 273.646 287.25 274.11 287.25 274.682 C 287.25 275.254 287.698 275.718 288.25 275.718 L 294.25 275.718 C 294.802 275.718 295.25 275.254 295.25 274.682 C 295.25 274.11 294.802 273.646 294.25 273.646 L 288.25 273.646 Z  M 298.25 273.646 C 297.698 273.646 297.25 274.11 297.25 274.682 C 297.25 275.254 297.698 275.718 298.25 275.718 L 302.25 275.718 C 302.802 275.718 303.25 275.254 303.25 274.682 C 303.25 274.11 302.802 273.646 302.25 273.646 L 298.25 273.646 Z  M 292.25 277.79 C 291.698 277.79 291.25 278.253 291.25 278.825 C 291.25 279.398 291.698 279.861 292.25 279.861 L 298.25 279.861 C 298.802 279.861 299.25 279.398 299.25 278.825 C 299.25 278.253 298.802 277.79 298.25 277.79 L 292.25 277.79 Z  M 275.25 278.825 C 274.698 278.825 274.25 279.289 274.25 279.861 C 274.25 280.434 274.698 280.897 275.25 280.897 L 277.25 280.897 C 277.802 280.897 278.25 280.434 278.25 279.861 C 278.25 279.289 277.802 278.825 277.25 278.825 L 275.25 278.825 Z  M 275.25 284.005 C 274.698 284.005 274.25 284.469 274.25 285.041 C 274.25 285.613 274.698 286.077 275.25 286.077 L 277.25 286.077 C 277.802 286.077 278.25 285.613 278.25 285.041 C 278.25 284.469 277.802 284.005 277.25 284.005 L 275.25 284.005 Z  M 275.25 289.184 C 274.698 289.184 274.25 289.648 274.25 290.22 C 274.25 290.792 274.698 291.256 275.25 291.256 L 277.25 291.256 C 277.802 291.256 278.25 290.792 278.25 290.22 C 278.25 289.648 277.802 289.184 277.25 289.184 L 275.25 289.184 Z  M 275.25 294.364 C 274.698 294.364 274.25 294.828 274.25 295.4 C 274.25 295.972 274.698 296.436 275.25 296.436 L 277.25 296.436 C 277.802 296.436 278.25 295.972 278.25 295.4 C 278.25 294.828 277.802 294.364 277.25 294.364 L 275.25 294.364 Z  M 310.25 300.389 L 310.25 303.687 C 310.25 304.257 309.8 304.723 309.25 304.723 L 274.25 304.723 C 273.148 304.723 272.25 303.793 272.25 302.651 C 272.25 301.364 273.64 300.579 274.25 300.579 L 309.25 300.579 C 309.602 300.579 309.938 300.507 310.25 300.389 Z  M 310.25 306.604 L 310.25 309.902 C 310.25 310.472 309.8 310.938 309.25 310.938 L 274.25 310.938 C 273.148 310.938 272.25 310.008 272.25 308.866 C 272.25 307.58 273.64 306.795 274.25 306.795 L 309.25 306.795 C 309.602 306.795 309.938 306.722 310.25 306.604 Z " fill="rgb(0,0,0)"/></svg>