<?xml version="1.0" encoding="UTF-8" standalone="no"?><!-- Generator: Gravit.io --><svg xmlns="http://www.w3.org/2000/svg" xmlns:xlink="http://www.w3.org/1999/xlink" style="isolation:isolate" viewBox="148.25 129.99 53 58.01" width="53pt" height="58.01pt"><path d=" M 173.094 129.992 C 172.251 129.966 171.438 130.282 170.767 130.78 C 170.096 131.279 169.495 131.934 168.914 132.753 C 168.47 133.378 168.03 133.645 167.257 133.818 C 166.483 133.989 165.404 133.975 164.142 133.975 C 162.733 133.975 161.712 134.098 160.869 134.408 C 160.194 134.656 159.578 135.138 159.253 135.75 C 159.237 135.788 159.224 135.827 159.213 135.867 C 159.198 135.897 159.183 135.917 159.173 135.946 C 159.158 135.972 159.145 135.998 159.134 136.026 C 159.109 136.094 159.071 136.153 159.054 136.223 C 158.853 137.071 159.139 137.785 159.489 138.352 C 159.834 138.909 160.292 139.386 160.75 139.812 C 161.278 140.338 162.397 141.294 163.471 143.004 C 164.443 144.548 165.148 146.647 165.089 149.157 C 160.908 150.433 156.915 153.476 153.849 157.36 C 150.523 161.574 148.25 166.715 148.25 171.714 C 148.25 177.88 150.182 182.272 154.56 184.766 C 158.937 187.261 165.404 188 174.75 188 C 184.096 188 190.563 187.261 194.94 184.766 C 199.318 182.272 201.25 177.88 201.25 171.714 C 201.25 162.17 193.772 153.435 185.161 149.631 C 185.766 149.551 186.394 149.492 187.054 149.512 C 189.179 149.566 191.445 150.206 193.402 152.273 C 193.699 152.652 194.186 152.834 194.659 152.736 C 195.109 153.114 195.762 153.13 196.23 152.775 C 196.699 152.419 196.859 151.787 196.616 151.251 C 196.373 150.716 195.792 150.42 195.216 150.538 C 192.929 148.118 190.159 147.2 187.685 147.027 C 189.754 146.16 192.135 145.899 194.98 147.461 C 195.38 147.743 195.901 147.767 196.33 147.531 C 196.877 147.74 197.496 147.546 197.825 147.061 C 198.154 146.577 198.107 145.929 197.71 145.498 C 197.314 145.067 196.672 144.965 196.162 145.253 C 194.389 144.278 192.703 143.883 191.114 143.872 C 187.542 143.854 184.535 145.755 182.559 147.107 C 182.272 142.507 184.874 138.84 185.2 138.431 L 185.24 138.391 L 185.278 138.313 C 185.717 137.622 186.402 136.642 186.699 135.473 C 186.847 134.893 186.93 134.123 186.423 133.423 C 185.915 132.722 185.057 132.476 184.214 132.476 C 182.637 132.476 181.212 133.014 180.074 133.226 C 178.934 133.438 178.358 133.402 177.786 132.831 L 177.786 132.87 C 177.776 132.861 177.757 132.88 177.747 132.87 C 176.107 131.165 174.775 130.041 173.093 129.993 L 173.094 129.992 Z  M 173.015 132.515 C 173.473 132.53 174.469 133.043 175.973 134.605 L 176.012 134.605 L 176.012 134.645 C 177.333 135.967 179.133 135.933 180.547 135.67 C 181.616 135.473 182.632 135.207 183.465 135.08 C 183.48 135.173 183.5 135.178 183.386 135.355 C 183.273 135.531 183.012 135.834 182.598 136.184 C 181.769 136.883 180.389 137.775 178.929 139.101 C 178.334 139.649 177.623 140.019 177.077 140.087 C 176.529 140.156 176.214 140.048 175.854 139.614 L 175.815 139.614 C 175.174 138.815 174.597 138.209 173.922 137.8 C 173.232 137.381 172.418 137.169 171.673 137.287 C 170.201 137.519 169.263 138.579 168.125 139.653 L 168.086 139.653 L 168.086 139.615 C 167.435 140.226 166.66 140.427 165.483 139.93 C 164.487 139.51 163.26 138.46 162.092 136.735 C 162.526 136.617 163.157 136.498 164.142 136.498 C 165.404 136.498 166.626 136.528 167.81 136.262 C 168.993 135.997 170.147 135.355 170.964 134.211 L 171.003 134.211 C 171.496 133.517 171.925 133.043 172.265 132.792 C 172.606 132.539 172.788 132.51 173.015 132.515 Z  M 172.068 139.81 C 172.226 139.786 172.325 139.752 172.621 139.929 C 172.916 140.106 173.335 140.501 173.883 141.191 L 173.883 141.23 L 173.921 141.23 C 174.824 142.31 176.175 142.724 177.391 142.571 C 178.61 142.419 179.743 141.837 180.666 140.994 C 180.798 140.87 180.927 140.797 181.06 140.679 C 180.212 142.729 179.541 145.47 180.074 148.605 C 174.238 151.439 169.565 149.941 167.77 149.117 C 167.82 146.544 167.075 144.336 166.153 142.611 C 167.514 142.744 168.849 142.38 169.821 141.467 C 170.944 140.407 171.753 139.861 172.068 139.81 Z  M 181.375 150.774 C 190.1 153.327 198.726 162.565 198.726 171.714 C 198.726 177.406 197.322 180.547 193.718 182.598 C 190.115 184.648 183.953 185.476 174.75 185.476 C 165.547 185.476 159.385 184.648 155.782 182.598 C 152.178 180.547 150.774 177.406 150.774 171.714 C 150.774 167.499 152.775 162.757 155.821 158.897 C 158.829 155.092 162.831 152.183 166.548 151.287 C 168.663 152.238 174.498 154.185 181.375 150.774 Z  M 172.857 156.452 L 172.857 158.976 C 170.964 159.229 167.691 160.737 167.691 164.773 C 167.691 172.092 178.3 168.332 178.3 173.882 C 178.3 175.775 177.406 177.392 174 177.392 C 170.467 177.392 169.466 174.607 169.466 173.093 L 167.179 173.093 C 167.557 178.013 170.964 179.182 172.857 179.562 L 172.857 181.69 L 175.145 181.69 L 175.145 179.56 C 176.909 179.433 180.941 178.151 180.941 173.607 C 180.941 169.821 177.895 168.805 174.869 168.046 C 172.472 167.415 170.215 166.933 170.215 164.537 C 170.215 163.525 170.595 161.263 174 161.263 C 176.397 161.263 177.525 162.772 177.905 164.536 L 180.193 164.536 C 179.562 162.012 178.427 159.726 175.145 159.095 L 175.145 156.452 L 172.857 156.452 Z " fill="rgb(0,0,0)"/></svg>