<?xml version="1.0" encoding="UTF-8" standalone="no"?><!-- Generator: Gravit.io --><svg xmlns="http://www.w3.org/2000/svg" xmlns:xlink="http://www.w3.org/1999/xlink" style="isolation:isolate" viewBox="97.25 129 52 58.01" width="52pt" height="58.01pt"><path d=" M 118.723 129 C 111.92 129 107.911 132.802 106.629 136.142 C 103.121 136.813 99.956 139.225 98.355 142.995 C 96.711 146.865 96.782 152.073 99.38 157.932 C 97.909 159.899 97.056 162.433 97.471 165.002 C 97.879 167.54 99.593 169.906 102.563 171.311 C 101.36 174.157 101.75 176.935 103.271 178.888 C 104.848 180.919 107.417 182.032 110.095 182.224 C 110.887 184.349 112.354 185.759 113.949 186.358 C 115.753 187.033 117.587 187.01 118.723 187.01 C 120.585 187.01 122.22 186.099 123.25 184.689 C 124.321 186.146 125.996 187.005 127.776 187.01 C 129.04 187.019 130.874 186.693 132.656 185.704 C 134.225 184.834 135.621 183.28 136.404 181.136 C 138.941 181.045 141.451 180.502 143.123 178.852 C 144.038 177.945 144.631 176.694 144.714 175.227 C 144.78 174.067 144.454 172.752 143.901 171.347 C 146.906 169.951 148.692 167.595 149.134 165.038 C 149.581 162.474 148.679 159.904 147.119 157.932 C 149.718 152.073 149.789 146.865 148.144 142.994 C 146.544 139.224 143.38 136.813 139.869 136.142 C 138.589 132.802 134.58 129 127.776 129 C 126.097 129 124.514 129.444 123.497 130.776 C 123.405 130.899 123.329 131.043 123.25 131.175 C 123.17 131.044 123.095 130.899 123.002 130.776 C 121.986 129.444 120.403 129 118.723 129 Z  M 118.723 131.32 C 120.085 131.32 120.743 131.552 121.234 132.191 C 121.724 132.829 122.118 134.216 122.118 136.722 L 122.118 181.209 C 122.118 183.325 120.749 184.689 118.723 184.689 C 117.596 184.689 116.036 184.671 114.728 184.181 C 113.419 183.693 112.372 182.868 111.899 180.919 L 111.685 180.049 L 110.802 180.049 C 108.509 180.049 106.25 178.993 105.038 177.438 C 103.827 175.883 103.465 173.917 104.968 171.347 L 105.71 170.114 L 104.366 169.68 C 101.299 168.632 100.034 166.716 99.699 164.64 C 99.371 162.6 100.078 160.347 101.36 158.875 C 101.386 158.853 101.41 158.829 101.432 158.802 L 101.467 158.767 C 101.467 158.767 104.217 155.684 107.408 155.684 C 111.439 155.684 113.42 157.679 113.42 157.679 C 113.698 158.019 114.142 158.166 114.562 158.056 C 114.982 157.947 115.304 157.601 115.391 157.166 C 115.478 156.731 115.317 156.283 114.976 156.01 C 114.976 156.01 112.211 153.364 107.408 153.364 C 104.583 153.364 102.293 154.872 100.971 156.01 C 98.996 151.048 99.169 146.933 100.442 143.938 C 101.838 140.643 104.556 138.648 107.514 138.282 L 108.291 138.172 L 108.468 137.447 C 109.079 135.263 112.377 131.32 118.723 131.32 Z  M 127.776 131.32 C 134.124 131.32 137.42 135.263 138.031 137.447 L 138.208 138.172 L 138.985 138.282 C 141.943 138.648 144.661 140.643 146.058 143.938 C 147.309 146.884 147.504 150.903 145.633 155.758 C 145.302 155.915 145.067 156.224 144.997 156.591 C 144.997 156.591 144.768 157.67 143.511 158.911 C 142.255 160.152 139.989 161.485 135.697 161.485 C 135.289 161.481 134.909 161.7 134.702 162.061 C 134.499 162.423 134.499 162.868 134.702 163.23 C 134.91 163.592 135.291 163.81 135.697 163.806 C 140.457 163.806 143.392 162.237 145.067 160.579 C 145.334 160.32 145.582 160.041 145.811 159.745 C 146.748 161.141 147.198 162.922 146.906 164.604 C 146.549 166.669 145.204 168.628 142.133 169.68 L 140.895 170.078 L 141.461 171.275 C 142.248 172.892 142.504 174.157 142.451 175.081 C 142.398 176.006 142.085 176.64 141.531 177.184 C 140.448 178.254 138.238 178.866 135.838 178.888 C 134.389 178.358 133.262 177.597 132.479 176.568 C 131.662 175.489 131.171 174.053 131.171 171.927 C 131.179 171.57 131.026 171.228 130.755 171.003 C 130.487 170.776 130.131 170.689 129.791 170.767 C 129.265 170.889 128.895 171.374 128.907 171.927 C 128.907 174.442 129.548 176.487 130.711 178.018 C 131.644 179.247 132.882 180.085 134.282 180.702 C 133.699 182.11 132.696 183.044 131.56 183.674 C 130.185 184.435 128.606 184.694 127.776 184.689 C 125.742 184.675 124.381 183.325 124.381 181.209 L 124.381 136.722 C 124.381 134.216 124.775 132.83 125.265 132.191 C 125.756 131.552 126.415 131.32 127.776 131.32 Z  M 116.354 140.566 C 116.305 140.575 116.256 140.589 116.212 140.602 C 115.686 140.724 115.316 141.209 115.329 141.762 C 115.329 141.957 115.134 142.904 114.374 143.683 C 113.613 144.463 112.274 145.243 109.671 145.243 C 109.263 145.238 108.883 145.457 108.676 145.818 C 108.473 146.18 108.473 146.626 108.676 146.988 C 108.884 147.35 109.265 147.568 109.671 147.563 C 112.726 147.563 114.785 146.602 116.001 145.352 C 117.216 144.101 117.592 142.727 117.592 141.762 C 117.603 141.428 117.474 141.106 117.237 140.877 C 117 140.648 116.678 140.534 116.354 140.566 Z  M 132.196 142.886 C 132.147 142.896 132.098 142.91 132.054 142.922 C 131.528 143.044 131.158 143.529 131.171 144.083 C 131.171 145.628 131.843 147.599 133.469 149.267 C 135.097 150.935 137.708 152.204 141.355 152.204 C 141.762 152.209 142.141 151.99 142.349 151.628 C 142.553 151.266 142.553 150.821 142.349 150.459 C 142.141 150.097 141.761 149.879 141.355 149.883 C 138.212 149.883 136.298 148.832 135.096 147.599 C 133.893 146.368 133.434 144.858 133.434 144.083 C 133.445 143.749 133.316 143.426 133.079 143.197 C 132.842 142.968 132.52 142.855 132.196 142.886 Z  M 107.125 163.806 C 106.502 163.824 106.011 164.363 106.028 165.002 C 106.046 165.641 106.571 166.145 107.195 166.126 C 110.237 166.643 111.545 168.306 112.287 170.078 C 113.032 171.851 113.065 173.667 113.065 174.248 C 113.061 174.665 113.274 175.054 113.627 175.267 C 113.981 175.476 114.413 175.476 114.767 175.267 C 115.12 175.054 115.333 174.664 115.329 174.248 C 115.329 173.672 115.329 171.424 114.374 169.136 C 113.42 166.847 111.345 164.449 107.584 163.806 C 107.467 163.788 107.348 163.788 107.231 163.806 L 107.125 163.806 Z " fill="rgb(0,0,0)"/></svg>